<svg width="21" height="20" viewBox="0 0 21 20" fill="none" xmlns="http://www.w3.org/2000/svg">
<path fill-rule="evenodd" clip-rule="evenodd" d="M19.6341 0.367164C19.7504 0.483256 19.8428 0.621169 19.9058 0.773003C19.9688 0.924837 20.0012 1.08761 20.0012 1.252C20.0012 1.41638 19.9688 1.57916 19.9058 1.73099C19.8428 1.88282 19.7504 2.02074 19.6341 2.13683L2.13739 19.6335C1.90272 19.8682 1.58444 20 1.25256 20C0.920685 20 0.602401 19.8682 0.36773 19.6335C0.133058 19.3988 0.00122071 19.0805 0.0012207 18.7487C0.0012207 18.4168 0.133058 18.0985 0.36773 17.8638L17.8644 0.367164C17.9805 0.250778 18.1184 0.158439 18.2702 0.0954345C18.4221 0.0324304 18.5848 0 18.7492 0C18.9136 0 19.0764 0.0324304 19.2282 0.0954345C19.38 0.158439 19.518 0.250778 19.6341 0.367164V0.367164Z" fill="#5A38FD"/>
<path fill-rule="evenodd" clip-rule="evenodd" d="M0.367164 0.367164C0.250778 0.483256 0.158439 0.621169 0.0954345 0.773003C0.0324304 0.924837 0 1.08761 0 1.252C0 1.41638 0.0324304 1.57916 0.0954345 1.73099C0.158439 1.88282 0.250778 2.02074 0.367164 2.13683L17.8638 19.6335C18.0985 19.8682 18.4168 20 18.7487 20C19.0805 20 19.3988 19.8682 19.6335 19.6335C19.8682 19.3988 20 19.0805 20 18.7487C20 18.4168 19.8682 18.0985 19.6335 17.8638L2.13683 0.367164C2.02074 0.250778 1.88282 0.158439 1.73099 0.0954345C1.57916 0.0324304 1.41638 0 1.252 0C1.08761 0 0.924837 0.0324304 0.773003 0.0954345C0.621169 0.158439 0.483256 0.250778 0.367164 0.367164V0.367164Z" fill="#5A38FD"/>
</svg>
